<?xml version="1.0" encoding="UTF-8"?>
<svg id="Layer_2" data-name="Layer 2" xmlns="http://www.w3.org/2000/svg" viewBox="0 0 399.13 288.04">
  <defs>
    <style>
      .cls-1, .cls-2, .cls-3 {
        fill: #fa0101;
      }

      .cls-1, .cls-4 {
        font-family: Poppins-Bold, Poppins;
        font-size: 37.15px;
        font-weight: 700;
      }

      .cls-5 {
        font-size: 24px;
      }

      .cls-5, .cls-3 {
        font-family: Poppins-SemiBold, Poppins;
        font-weight: 600;
      }

      .cls-6 {
        fill: #040303;
      }

      .cls-3 {
        font-size: 13.79px;
      }

      .cls-7 {
        fill: #fdfcfc;
      }
    </style>
  </defs>
  <g id="Layer_1-2" data-name="Layer 1">
    <g>
      <g>
        <path class="cls-6" d="M213.73,190.53c-50.64-.13-101.3.08-151.94.02-.49.1-1.66-.35-1.66-.74v-115.2c0-.05.67-.72.72-.72h40.32c.05,0,.72.67.72.72v99.12h7.68V43.41c0-.05.67-.72.72-.72h48l1.2,131.04h7.68v-85.2c0-.4,1.16-.85,1.66-.74,14.96-.08,29.95.2,44.9.02v102.72ZM150.85,51.81h-32.64v13.2c0,.05.67.72.72.72h31.2c.05,0,.72-.67.72-.72v-13.2ZM150.85,79.65h-32.64v13.2c0,.05.67.72.72.72h31.2c.05,0,.72-.67.72-.72v-13.2ZM93.25,85.41h-24.48v29.52c0,.05.67.72.72.72h23.76v-30.24ZM186.37,98.85h-9.84c-.05,0-.72.67-.72.72v18.24c0,.05.67.72.72.72h9.84v-19.68ZM202.21,99.33c-2.01-.73-7.18-1.35-7.67,1.21-.52,2.72-.25,11.76-.04,14.89.06.81.15,1.58.45,2.34.4.57,4.3.25,5.33.28,1.23.03,5.76.77,5.76-.72v-18c-1.28.02-2.56-.02-3.84,0ZM150.85,107.49h-32.64v13.44h32.64v-13.44ZM68.77,127.41v29.28c0,.05.67.72.72.72h23.04c.05,0,.72-.67.72-.72v-29.28c0-.09-.54-.62-.76-.67l-22.57-.03c-.42-.08-1.06.39-1.15.7ZM186.37,132.45h-10.56v19.2h10.56v-19.2ZM200.29,132.45c-1.75.02-3.51-.05-5.26.03-.69.67-.87,18.54.04,19.11,1.72.14,3.48.08,5.21.07,1.07-.01,5.76.35,5.76-.72v-18.48c-1.91.01-3.85-.02-5.76,0ZM150.85,135.33h-32.64v13.44h32.64v-13.44Z"/>
        <path class="cls-2" d="M213.73,87.81c6.6-.08,14.74-1.4,21.38-.5.63.09,2.14.62,2.14,1.22v84.72c1.13.55,7.2.97,7.2-.24V43.17c.88-.22,1.69-.43,2.62-.5,13.58-1.07,28.55.86,42.28,0,1.06-.14,3.1.5,3.1,1.7v129.36c1.04-.14,6.72.49,6.72-.72v-98.4c0-.05.67-.72.72-.72h38.4c.05,0,.72.67.72.72v115.2c0,.08-.74.85-.97.95-40.84.34-81.8.39-122.69.28-.88,0-1.54-.51-1.62-.52v-102.72ZM283.81,52.29c-.88-.22-1.69-.43-2.62-.5-7.05-.56-16.84-.25-24.05,0-1.35.05-3.65.01-4.54.74v12.48c0,.05.67.72.72.72h29.76c.05,0,.72-.67.72-.72v-12.72ZM283.81,79.65h-30.96c-.05,0-.72.67-.72.72v12.48c0,.05.67.72.72.72h30.24c.05,0,.72-.67.72-.72v-13.2ZM330.37,85.41h-22.56v30.24h22.32c.05,0,.72-.67.72-.72v-28.32c0-.16-.64-.73-.48-1.2ZM229.09,98.85h-9.84c-.05,0-.72.67-.72.72v18.48h10.08c-.16-.47.48-1.04.48-1.2v-18ZM283.33,120.93c.63,0,.73-11.4.23-12.47-.11-.23-.87-.97-.95-.97h-29.52c.16.47-.48,1.04-.48,1.2v11.52c0,.05.67.72.72.72h30ZM330.85,126.69h-23.04v30.72h21.84c.16,0,.73-.64,1.2-.48v-30.24ZM229.09,151.65v-18.48c0-.05-.67-.72-.72-.72h-9.84v18.48c0,.05.67.72.72.72h9.84ZM283.33,135.33h-30c-.05,0-.72.67-.72.72v11.52c0,.16.64.73.48,1.2h29.52c.53,0,.69-1.17.74-1.66.14-1.2.39-11.36-.02-11.78Z"/>
        <path class="cls-6" d="M179.65,41.49c.05-.29.44-.76.62-1.07L258.61,0l78.13,40.27c.29.21.83.98.83,1.22v19.44c-2.94-.28-5.95-2.23-8.65-3.59-23.53-11.87-46.68-24.52-70.31-36.22l-77.02,39.58-1.94.22c.7-5.84-.94-13.89,0-19.44Z"/>
        <path class="cls-7" d="M68.77,127.41c.09-.31.74-.77,1.15-.7l22.57.03c.21.05.76.58.76.67v29.28c0,.05-.67.72-.72.72h-23.04c-.05,0-.72-.67-.72-.72v-29.28Z"/>
        <path class="cls-7" d="M93.25,85.41v30.24h-23.76c-.05,0-.72-.67-.72-.72v-29.52h24.48Z"/>
        <path class="cls-7" d="M150.85,51.81v13.2c0,.05-.67.72-.72.72h-31.2c-.05,0-.72-.67-.72-.72v-13.2h32.64Z"/>
        <path class="cls-7" d="M150.85,79.65v13.2c0,.05-.67.72-.72.72h-31.2c-.05,0-.72-.67-.72-.72v-13.2h32.64Z"/>
        <rect class="cls-7" x="118.21" y="107.49" width="32.64" height="13.44"/>
        <rect class="cls-7" x="118.21" y="135.33" width="32.64" height="13.44"/>
        <path class="cls-7" d="M186.37,98.85v19.68h-9.84c-.05,0-.72-.67-.72-.72v-18.24c0-.05.67-.72.72-.72h9.84Z"/>
        <rect class="cls-7" x="175.81" y="132.45" width="10.56" height="19.2"/>
        <path class="cls-7" d="M200.29,132.45c1.91-.02,3.85.01,5.76,0v18.48c0,1.07-4.69.71-5.76.72v-19.2Z"/>
        <path class="cls-2" d="M202.21,99.33c-.64.01-1.28-.02-1.92,0v18.72c-1.03-.03-4.93.29-5.33-.28-.29-.76-.39-1.53-.45-2.34-.22-3.12-.48-12.17.04-14.89.49-2.57,5.66-1.94,7.67-1.21Z"/>
        <path class="cls-2" d="M200.29,132.45v19.2c-1.73.02-3.49.07-5.21-.07-.91-.57-.74-18.43-.04-19.11,1.74-.07,3.51,0,5.26-.03Z"/>
        <path class="cls-7" d="M202.21,99.33c1.28-.02,2.56.02,3.84,0v18c0,1.49-4.53.75-5.76.72v-18.72c.64-.01,1.28.01,1.92,0Z"/>
        <path class="cls-7" d="M330.85,126.69v30.24c-.47-.16-1.04.48-1.2.48h-21.84v-30.72h23.04Z"/>
        <path class="cls-7" d="M330.37,85.41c-.16.47.48,1.04.48,1.2v28.32c0,.05-.67.72-.72.72h-22.32v-30.24h22.56Z"/>
        <path class="cls-7" d="M283.81,79.65v13.2c0,.05-.67.72-.72.72h-30.24c-.05,0-.72-.67-.72-.72v-12.48c0-.05.67-.72.72-.72h30.96Z"/>
        <path class="cls-7" d="M283.81,52.29v12.72c0,.05-.67.72-.72.72h-29.76c-.05,0-.72-.67-.72-.72v-12.48c.88-.73,3.19-.7,4.54-.74,7.21-.25,16.99-.56,24.05,0,.92.07,1.74.28,2.62.5Z"/>
        <path class="cls-7" d="M283.33,120.93h-30c-.05,0-.72-.67-.72-.72v-11.52c0-.16.64-.73.48-1.2h29.52c.08,0,.85.74.95.97.5,1.07.39,12.47-.23,12.47Z"/>
        <path class="cls-7" d="M283.33,135.33c.41.42.17,10.58.02,11.78-.06.48-.22,1.66-.74,1.66h-29.52c.16-.47-.48-1.04-.48-1.2v-11.52c0-.05.67-.72.72-.72h30Z"/>
        <path class="cls-7" d="M229.09,151.65h-9.84c-.05,0-.72-.67-.72-.72v-18.48h9.84c.05,0,.72.67.72.72v18.48Z"/>
        <path class="cls-7" d="M229.09,98.85v18c0,.16-.64.73-.48,1.2h-10.08v-18.48c0-.05.67-.72.72-.72h9.84Z"/>
      </g>
      <text class="cls-3" transform="translate(0 279.86)"><tspan x="0" y="0">855 High Road Leytonstone London E11 HH 020 3488 6585</tspan></text>
      <text class="cls-5" transform="translate(8.72 259)"><tspan x="0" y="0">Lettings - Management - Sales</tspan></text>
      <g>
        <text class="cls-1" transform="translate(60.83 232.8) scale(.84 1)"><tspan x="0" y="0">PREVIEW</tspan></text>
        <text class="cls-4" transform="translate(206.76 232.8) scale(.84 1)"><tspan x="0" y="0">ESTATES</tspan></text>
      </g>
    </g>
  </g>
</svg>